<svg width="17" height="17" viewBox="0 0 17 17" fill="none" xmlns="http://www.w3.org/2000/svg">
<path fill-rule="evenodd" clip-rule="evenodd" d="M17 8.5C17 13.1944 13.1944 17 8.5 17C3.80558 17 0 13.1944 0 8.5C0 3.80558 3.80558 0 8.5 0C13.1944 0 17 3.80558 17 8.5ZM11.7778 5.22215C12.0796 5.52392 12.0796 6.01319 11.7778 6.31496L9.59277 8.5L11.778 10.6852C12.0798 10.987 12.0798 11.4762 11.778 11.778C11.4762 12.0798 10.987 12.0798 10.6852 11.778L8.49997 9.5928L6.31381 11.779C6.01204 12.0807 5.52278 12.0807 5.22101 11.779C4.91924 11.4772 4.91924 10.9879 5.22101 10.6862L7.40717 8.5L5.22118 6.31401C4.91941 6.01224 4.91941 5.52297 5.22118 5.22121C5.52295 4.91944 6.01221 4.91944 6.31398 5.22121L8.49997 7.4072L10.685 5.22215C10.9868 4.92038 11.476 4.92038 11.7778 5.22215Z" fill="#62B3FF"/>
</svg>
